<svg width="24" height="24" viewBox="0 0 24 24" fill="none" xmlns="http://www.w3.org/2000/svg">
<path fill-rule="evenodd" clip-rule="evenodd" d="M12 5C12 4.44772 11.55 3.99344 11.002 4.06165C7.05471 4.55286 4 7.9197 4 12C4 16.0803 7.05471 19.4471 11.002 19.9384C11.55 20.0066 12 19.5523 12 19V5ZM2 12C2 6.47715 6.47715 2 12 2C12.3748 2 12.7451 2.02066 13.1099 2.06098C18.1109 2.61382 22 6.85205 22 12C22 17.148 18.1109 21.3862 13.1099 21.939C12.7451 21.9793 12.3748 22 12 22C6.47715 22 2 17.5228 2 12Z" fill="black"/>
</svg>
