<svg width="24" height="24" viewBox="0 0 24 24" fill="none" xmlns="http://www.w3.org/2000/svg">
<path d="M13 3C13 3.55228 12.5523 4 12 4C11.4477 4 11 3.55228 11 3C11 2.44772 11.4477 2 12 2C12.5523 2 13 2.44772 13 3Z" fill="black"/>
<path d="M13 21C13 21.5523 12.5523 22 12 22C11.4477 22 11 21.5523 11 21C11 20.4477 11.4477 20 12 20C12.5523 20 13 20.4477 13 21Z" fill="black"/>
<path d="M9.47981 3.30215C9.69116 3.8124 9.44886 4.39736 8.93862 4.60871C8.42837 4.82006 7.8434 4.57776 7.63205 4.06752C7.4207 3.55727 7.663 2.9723 8.17325 2.76095C8.68349 2.5496 9.26846 2.79191 9.47981 3.30215Z" fill="black"/>
<path d="M16.3684 19.932C16.5798 20.4423 16.3375 21.0272 15.8272 21.2386C15.317 21.4499 14.732 21.2076 14.5207 20.6974C14.3093 20.1872 14.5516 19.6022 15.0619 19.3908C15.5721 19.1795 16.1571 19.4218 16.3684 19.932Z" fill="black"/>
<path d="M6.34285 4.92864C6.73338 5.31916 6.73338 5.95233 6.34285 6.34285C5.95233 6.73337 5.31916 6.73337 4.92864 6.34285C4.53811 5.95233 4.53811 5.31916 4.92864 4.92864C5.31916 4.53811 5.95233 4.53811 6.34285 4.92864Z" fill="black"/>
<path d="M19.0714 17.6571C19.4619 18.0476 19.4619 18.6808 19.0714 19.0713C18.6808 19.4618 18.0477 19.4618 17.6571 19.0713C17.2666 18.6808 17.2666 18.0476 17.6571 17.6571C18.0477 17.2666 18.6808 17.2666 19.0714 17.6571Z" fill="black"/>
<path d="M4.06751 7.63205C4.57775 7.8434 4.82006 8.42837 4.60871 8.93861C4.39736 9.44886 3.81239 9.69116 3.30214 9.47981C2.7919 9.26846 2.5496 8.68349 2.76095 8.17325C2.9723 7.663 3.55726 7.4207 4.06751 7.63205Z" fill="black"/>
<path d="M20.6974 14.5207C21.2076 14.732 21.4499 15.317 21.2386 15.8272C21.0272 16.3375 20.4423 16.5798 19.932 16.3684C19.4218 16.1571 19.1795 15.5721 19.3908 15.0619C19.6022 14.5516 20.1872 14.3093 20.6974 14.5207Z" fill="black"/>
<path d="M3 11C3.55229 11 4 11.4477 4 12C4 12.5523 3.55229 13 3 13C2.44772 13 2 12.5523 2 12C2 11.4477 2.44772 11 3 11Z" fill="black"/>
<path d="M21 11C21.5523 11 22 11.4477 22 12C22 12.5523 21.5523 13 21 13C20.4478 13 20 12.5523 20 12C20 11.4477 20.4478 11 21 11Z" fill="black"/>
<path d="M3.30313 14.5207C3.81337 14.3093 4.39834 14.5516 4.60969 15.0619C4.82104 15.5721 4.57874 16.1571 4.06849 16.3684C3.55825 16.5798 2.97328 16.3375 2.76193 15.8272C2.55058 15.317 2.79288 14.732 3.30313 14.5207Z" fill="black"/>
<path d="M19.933 7.63205C20.4432 7.4207 21.0282 7.663 21.2395 8.17325C21.4509 8.68349 21.2086 9.26846 20.6983 9.47981C20.1881 9.69116 19.6031 9.44886 19.3918 8.93861C19.1804 8.42837 19.4227 7.8434 19.933 7.63205Z" fill="black"/>
<path d="M4.92961 17.6562C5.32013 17.2657 5.9533 17.2657 6.34382 17.6562C6.73435 18.0468 6.73435 18.6799 6.34382 19.0704C5.9533 19.461 5.32013 19.461 4.92961 19.0704C4.53909 18.6799 4.53909 18.0468 4.92961 17.6562Z" fill="black"/>
<path d="M17.6571 4.92864C18.0476 4.53811 18.6808 4.53811 19.0713 4.92864C19.4618 5.31916 19.4618 5.95233 19.0713 6.34285C18.6808 6.73337 18.0476 6.73337 17.6571 6.34285C17.2666 5.95233 17.2666 5.31916 17.6571 4.92864Z" fill="black"/>
<path d="M7.63204 19.9321C7.84339 19.4218 8.42837 19.1795 8.93862 19.3909C9.44886 19.6022 9.69115 20.1872 9.4798 20.6975C9.26845 21.2077 8.6835 21.45 8.17325 21.2387C7.66301 21.0273 7.42069 20.4423 7.63204 19.9321Z" fill="black"/>
<path d="M14.5207 3.30215C14.732 2.7919 15.317 2.5496 15.8272 2.76095C16.3375 2.9723 16.5798 3.55727 16.3684 4.06752C16.1571 4.57776 15.5721 4.82006 15.0619 4.60871C14.5516 4.39736 14.3093 3.81239 14.5207 3.30215Z" fill="black"/>
<path d="M18 12C18 15.3137 15.3137 18 12 18C8.68629 18 6 15.3137 6 12C6 8.68629 8.68629 6 12 6C15.3137 6 18 8.68629 18 12Z" fill="black"/>
</svg>
