<svg width="24" height="24" viewBox="0 0 24 24" fill="none" xmlns="http://www.w3.org/2000/svg">
<path d="M12 3C16.9705 3 21 7.02944 21 12C21 16.9705 16.9705 21 12 21C7.02944 21 3 16.9705 3 12C3 7.02943 7.02943 3 12 3Z" stroke="black" stroke-width="2"/>
<path d="M14.2929 8.2929C14.6834 7.90237 15.3164 7.90237 15.7069 8.2929C16.0975 8.68342 16.0975 9.31644 15.7069 9.70696L13.414 11.9999L15.7069 14.2929C16.0975 14.6834 16.0975 15.3164 15.7069 15.7069C15.3164 16.0975 14.6834 16.0975 14.2929 15.7069L11.9999 13.414L9.70696 15.7069C9.31644 16.0975 8.68342 16.0975 8.2929 15.7069C7.90237 15.3164 7.90237 14.6834 8.2929 14.2929L10.5858 11.9999L8.2929 9.70696C7.90237 9.31644 7.90237 8.68342 8.2929 8.2929C8.68342 7.90237 9.31644 7.90237 9.70696 8.2929L11.9999 10.5858L14.2929 8.2929Z" fill="black"/>
</svg>
