<svg width="24" height="24" viewBox="0 0 24 24" fill="none" xmlns="http://www.w3.org/2000/svg">
<path d="M13.3422 19.8881C13.8868 19.7962 14.4027 20.1638 14.4945 20.7084C14.5863 21.2529 14.2197 21.7688 13.6752 21.8608C13.13 21.9527 12.5703 22.0004 12.0004 22.0004C11.4305 22.0004 10.8708 21.9527 10.3256 21.8608C9.78113 21.7688 9.41449 21.2529 9.50626 20.7084C9.59815 20.1638 10.114 19.7962 10.6586 19.8881C11.0943 19.9616 11.5424 20.0004 12.0004 20.0004C12.4584 20.0004 12.9065 19.9616 13.3422 19.8881Z" fill="black"/>
<path d="M4.07965 16.3932C4.5298 16.0732 5.15421 16.1784 5.47418 16.6285C5.99547 17.3619 6.6373 18.0037 7.37066 18.525C7.82082 18.845 7.92599 19.4694 7.60602 19.9195C7.28604 20.3696 6.66163 20.4748 6.21148 20.1549C5.29603 19.5041 4.49508 18.7031 3.8443 17.7877C3.52433 17.3375 3.62952 16.7131 4.07965 16.3932Z" fill="black"/>
<path d="M18.525 16.6285C18.845 16.1784 19.4694 16.0732 19.9195 16.3932C20.3696 16.7131 20.4748 17.3375 20.1549 17.7877C19.5041 18.7031 18.7031 19.5041 17.7877 20.1549C17.3375 20.4748 16.7131 20.3696 16.3932 19.9195C16.0732 19.4694 16.1784 18.845 16.6285 18.525C17.3619 18.0037 18.0037 17.3619 18.525 16.6285Z" fill="black"/>
<path d="M2.13965 10.3256C2.23158 9.78113 2.74751 9.41449 3.29199 9.50626C3.83658 9.59815 4.20419 10.114 4.1123 10.6586C4.0388 11.0943 4 11.5424 4 12.0004C4 12.4584 4.0388 12.9065 4.1123 13.3422C4.20419 13.8868 3.83658 14.4027 3.29199 14.4945C2.74751 14.5863 2.23158 14.2197 2.13965 13.6752C2.04766 13.13 2 12.5703 2 12.0004C2 11.4305 2.04766 10.8708 2.13965 10.3256Z" fill="black"/>
<path d="M20.7084 9.50626C21.2529 9.41449 21.7688 9.78113 21.8608 10.3256C21.9527 10.8708 22.0004 11.4305 22.0004 12.0004C22.0004 12.5703 21.9527 13.13 21.8608 13.6752C21.7688 14.2197 21.2529 14.5863 20.7084 14.4945C20.1638 14.4027 19.7962 13.8868 19.8881 13.3422C19.9616 12.9065 20.0004 12.4584 20.0004 12.0004C20.0004 11.5424 19.9616 11.0943 19.8881 10.6586C19.7962 10.114 20.1638 9.59815 20.7084 9.50626Z" fill="black"/>
<path d="M6.21148 3.8443C6.66163 3.52433 7.28604 3.62952 7.60602 4.07965C7.92599 4.5298 7.82082 5.15421 7.37066 5.47418C6.6373 5.99547 5.99547 6.6373 5.47418 7.37066C5.15421 7.82082 4.5298 7.92599 4.07965 7.60602C3.62952 7.28604 3.52433 6.66163 3.8443 6.21148C4.49508 5.29603 5.29603 4.49508 6.21148 3.8443Z" fill="black"/>
<path d="M16.3932 4.07965C16.7131 3.62952 17.3375 3.52433 17.7877 3.8443C18.7031 4.49508 19.5041 5.29603 20.1549 6.21148C20.4748 6.66163 20.3696 7.28604 19.9195 7.60602C19.4694 7.92599 18.845 7.82082 18.525 7.37066C18.0037 6.6373 17.3619 5.99547 16.6285 5.47418C16.1784 5.15421 16.0732 4.5298 16.3932 4.07965Z" fill="black"/>
<path d="M12.0004 2C12.5703 2 13.13 2.04766 13.6752 2.13965C14.2197 2.23158 14.5863 2.74751 14.4945 3.29199C14.4027 3.83658 13.8868 4.20419 13.3422 4.1123C12.9065 4.0388 12.4584 4 12.0004 4C11.5424 4 11.0943 4.0388 10.6586 4.1123C10.114 4.20419 9.59815 3.83658 9.50626 3.29199C9.41449 2.74751 9.78112 2.23158 10.3256 2.13965C10.8708 2.04766 11.4305 2 12.0004 2Z" fill="black"/>
</svg>
