<svg width="32" height="32" viewBox="0 0 32 32" fill="none" xmlns="http://www.w3.org/2000/svg">
<path d="M5.33398 17.6723C5.33398 14.9179 5.33398 13.5407 5.89238 12.4183C6.3642 11.47 7.20802 10.5989 8.1408 10.0972C9.24474 9.50336 10.5289 9.46249 13.0971 9.38073C15.0553 9.3184 16.946 9.3184 18.9043 9.38073C21.4724 9.46249 22.7565 9.50336 23.8605 10.0972C24.7933 10.5989 25.6371 11.47 26.1089 12.4183C26.6673 13.5407 26.6673 14.9179 26.6673 17.6723V18.3291C26.6673 21.0835 26.6673 22.4607 26.1089 23.5831C25.6371 24.5313 24.7933 25.4024 23.8605 25.9041C22.7565 26.498 21.4724 26.5388 18.9043 26.6205C16.946 26.6829 15.0553 26.6829 13.0971 26.6205C10.5289 26.5388 9.24474 26.498 8.1408 25.9041C7.20802 25.4024 6.3642 24.5313 5.89238 23.5831C5.33398 22.4607 5.33398 21.0835 5.33398 18.3291V17.6723Z" stroke="black" stroke-width="2.66667"/>
<path d="M17.3333 5.66667C18.622 5.66667 19.6667 4.622 19.6667 3.33333C19.6667 2.04467 18.622 1 17.3333 1C16.0447 1 15 2.04467 15 3.33333C15 4.622 16.0447 5.66667 17.3333 5.66667Z" fill="black"/>
<path d="M5.33333 14.666C4.59696 14.666 4 15.2629 4 15.9993V17.3327C4 18.0691 4.59696 18.666 5.33333 18.666" stroke="black" stroke-width="2.66667" stroke-linejoin="round"/>
<path d="M26.666 14.666C27.4024 14.666 27.9993 15.2629 27.9993 15.9993V17.3327C27.9993 18.0691 27.4024 18.666 26.666 18.666" stroke="black" stroke-width="2.66667" stroke-linejoin="round"/>
<path d="M16.0009 9.33245C15.9375 6.70557 15.9824 5.28695 17.5009 3.73438" stroke="black" stroke-width="2.13333"/>
<path d="M12.666 13C13.5863 13 14.3328 13.7455 14.333 14.666V18.666C14.333 18.8063 14.3153 18.9423 14.2823 19.0721C14.2003 19.3943 13.7907 19.3954 13.504 19.2272C13.2581 19.0829 12.972 19 12.666 19C12.3603 19.0001 12.0741 19.0826 11.8281 19.2266C11.5408 19.3946 11.1309 19.3931 11.0498 19.0703C11.0173 18.9409 11 18.8055 11 18.666V14.666C11.0002 13.7457 11.7459 13.0002 12.666 13ZM19.332 13C20.2524 13 20.9988 13.7457 20.999 14.666V18.666C20.999 18.8063 20.9814 18.9423 20.9483 19.0721C20.8663 19.3943 20.4567 19.3954 20.17 19.2272C19.9241 19.0829 19.638 19 19.332 19C19.0263 19.0001 18.7401 19.0826 18.4941 19.2266C18.2069 19.3946 17.7969 19.393 17.7158 19.0703C17.6833 18.9409 17.666 18.8055 17.666 18.666V14.666C17.6662 13.7458 18.4118 13.0002 19.332 13Z" fill="black"/>
</svg>
