<svg width="18" height="18" viewBox="0 0 18 18" fill="none" xmlns="http://www.w3.org/2000/svg">
<path d="M15.0001 8.13541H14.2501V13.4056H15.0001H15.7501V8.13541H15.0001ZM12.6001 15.8056V15.0556H5.4001V15.8056V16.5556H12.6001V15.8056ZM3.0001 13.4056H3.7501V8.13541H3.0001H2.2501V13.4056H3.0001ZM3.88667 6.27273L4.35962 6.85482L7.95962 3.92982L7.48667 3.34773L7.01373 2.76565L3.41373 5.69065L3.88667 6.27273ZM10.5135 3.34773L10.0406 3.92982L13.6406 6.85482L14.1135 6.27273L14.5865 5.69065L10.9865 2.76565L10.5135 3.34773ZM7.48667 3.34773L7.95962 3.92982C8.23787 3.70372 8.41547 3.56007 8.55977 3.45951C8.69635 3.36435 8.76047 3.33903 8.7979 3.32854L8.59577 2.6063L8.39357 1.88406C8.13122 1.95751 7.9105 2.08375 7.70237 2.22874C7.50197 2.36833 7.27494 2.55341 7.01373 2.76565L7.48667 3.34773ZM10.5135 3.34773L10.9865 2.76565C10.7252 2.55341 10.4982 2.36833 10.2978 2.22874C10.0897 2.08375 9.86897 1.95751 9.60662 1.88406L9.40442 2.6063L9.2023 3.32854C9.23972 3.33903 9.30385 3.36435 9.44042 3.45951C9.58472 3.56007 9.76232 3.70372 10.0406 3.92982L10.5135 3.34773ZM8.59577 2.6063L8.7979 3.32854C8.9302 3.29153 9.07 3.29153 9.2023 3.32854L9.40442 2.6063L9.60662 1.88406C9.20987 1.77302 8.79032 1.77302 8.39357 1.88406L8.59577 2.6063ZM5.4001 15.8056V15.0556C4.96769 15.0556 4.68848 15.055 4.47598 15.0376C4.27223 15.021 4.19669 14.9927 4.15961 14.9738L3.81911 15.6421L3.47862 16.3103C3.76241 16.4549 4.05732 16.5085 4.35383 16.5327C4.64158 16.5562 4.99244 16.5556 5.4001 16.5556V15.8056ZM3.0001 13.4056H2.2501C2.2501 13.8133 2.24951 14.1641 2.27303 14.4519C2.29725 14.7484 2.35074 15.0433 2.49533 15.3271L3.16359 14.9866L3.83184 14.6461C3.81295 14.609 3.78469 14.5335 3.76805 14.3297C3.75068 14.1172 3.7501 13.838 3.7501 13.4056H3.0001ZM3.81911 15.6421L4.15961 14.9738C4.01849 14.902 3.90375 14.7872 3.83184 14.6461L3.16359 14.9866L2.49533 15.3271C2.71105 15.7504 3.05525 16.0946 3.47862 16.3103L3.81911 15.6421ZM15.0001 13.4056H14.2501C14.2501 13.838 14.2495 14.1172 14.2322 14.3297C14.2155 14.5335 14.1872 14.609 14.1683 14.6461L14.8366 14.9866L15.5048 15.3271C15.6494 15.0433 15.7029 14.7484 15.7271 14.4519C15.7507 14.1641 15.7501 13.8133 15.7501 13.4056H15.0001ZM12.6001 15.8056V16.5556C13.0078 16.5556 13.3586 16.5562 13.6463 16.5327C13.9429 16.5085 14.2378 16.4549 14.5216 16.3103L14.1811 15.6421L13.8406 14.9738C13.8035 14.9927 13.7279 15.021 13.5242 15.0376C13.3117 15.055 13.0325 15.0556 12.6001 15.0556V15.8056ZM14.8366 14.9866L14.1683 14.6461C14.0964 14.7872 13.9817 14.902 13.8406 14.9738L14.1811 15.6421L14.5216 16.3103C14.945 16.0946 15.2891 15.7504 15.5048 15.3271L14.8366 14.9866ZM15.0001 8.13541H15.7501C15.7501 7.75704 15.7563 7.42811 15.6707 7.11439L14.9471 7.31194L14.2236 7.50949C14.2439 7.58376 14.2501 7.67448 14.2501 8.13541H15.0001ZM14.1135 6.27273L13.6406 6.85482C13.9983 7.14548 14.0648 7.2075 14.1097 7.27008L14.7192 6.83312L15.3288 6.39616C15.1393 6.13185 14.8801 5.92924 14.5865 5.69065L14.1135 6.27273ZM14.9471 7.31194L15.6707 7.11439C15.6002 6.85657 15.4845 6.61337 15.3288 6.39616L14.7192 6.83312L14.1097 7.27008C14.1616 7.34248 14.2001 7.42354 14.2236 7.50949L14.9471 7.31194ZM3.0001 8.13541H3.7501C3.7501 7.67448 3.7563 7.58376 3.77658 7.50949L3.05307 7.31194L2.32955 7.11439C2.2439 7.42811 2.2501 7.75704 2.2501 8.13541H3.0001ZM3.88667 6.27273L3.41373 5.69065C3.12008 5.92924 2.86088 6.13185 2.6714 6.39616L3.28097 6.83312L3.89054 7.27008C3.93539 7.2075 4.00189 7.14547 4.35962 6.85482L3.88667 6.27273ZM3.05307 7.31194L3.77658 7.50949C3.80005 7.42354 3.83864 7.34248 3.89054 7.27008L3.28097 6.83312L2.6714 6.39616C2.5157 6.61336 2.39995 6.85657 2.32955 7.11439L3.05307 7.31194Z" fill="black"/>
<path d="M8.25 10.5547V11.3047H9.75V10.5547V9.80469H8.25V10.5547ZM11.25 12.0547H10.5V15.8047H11.25H12V12.0547H11.25ZM6.75 15.8047H7.5V12.0547H6.75H6V15.8047H6.75ZM9.75 10.5547V11.3047C10.1642 11.3047 10.5 11.6405 10.5 12.0547H11.25H12C12 10.812 10.9927 9.80469 9.75 9.80469V10.5547ZM8.25 10.5547V9.80469C7.00736 9.80469 6 10.812 6 12.0547H6.75H7.5C7.5 11.6405 7.83578 11.3047 8.25 11.3047V10.5547Z" fill="black"/>
</svg>
