<svg width="18" height="18" viewBox="0 0 18 18" fill="none" xmlns="http://www.w3.org/2000/svg">
<path d="M2.25 9H5.625C6.09713 9 6.54172 9.2223 6.825 9.6L7.05 9.9C7.33328 10.2777 7.77788 10.5 8.25 10.5H9.75C10.2221 10.5 10.6667 10.2777 10.95 9.9L11.175 9.6C11.4583 9.2223 11.9029 9 12.375 9H15.75M16.3024 8.65418L13.9318 4.50579C13.6648 4.03843 13.1678 3.75 12.6295 3.75H5.37049C4.8322 3.75 4.33518 4.03843 4.06812 4.50579L1.69763 8.65418C1.56812 8.88075 1.5 9.13733 1.5 9.39833V12.75C1.5 13.5784 2.17157 14.25 3 14.25H15C15.8284 14.25 16.5 13.5784 16.5 12.75V9.39833C16.5 9.13733 16.4319 8.88075 16.3024 8.65418Z" stroke="black" stroke-width="1.5" stroke-linecap="round" stroke-linejoin="round"/>
</svg>
