<svg width="18" height="18" viewBox="0 0 18 18" fill="none" xmlns="http://www.w3.org/2000/svg">
<path d="M6.75 12C6.75 12.4142 6.41422 12.75 6 12.75C5.58577 12.75 5.25 12.4142 5.25 12H6.75ZM5.25 6C5.25 5.58579 5.58577 5.25 6 5.25C6.41422 5.25 6.75 5.58579 6.75 6H5.25ZM3.75 5.4V12.6H2.25V5.4H3.75ZM5.4 14.25H12.6V15.75H5.4V14.25ZM14.25 12.6V5.4H15.75V12.6H14.25ZM12.6 3.75H5.4V2.25H12.6V3.75ZM12.6 14.25C13.0324 14.25 13.3116 14.2494 13.5241 14.2321C13.7279 14.2154 13.8034 14.1872 13.8405 14.1683L14.5215 15.5048C14.2377 15.6494 13.9428 15.7028 13.6463 15.7271C13.3585 15.7506 13.0077 15.75 12.6 15.75V14.25ZM15.75 12.6C15.75 13.0076 15.7506 13.3586 15.7271 13.6463C15.7028 13.9428 15.6494 14.2377 15.5048 14.5215L14.1683 13.8405C14.1871 13.8034 14.2154 13.7279 14.2321 13.5242C14.2494 13.3116 14.25 13.0324 14.25 12.6H15.75ZM13.8405 14.1683C13.9816 14.0963 14.0963 13.9816 14.1683 13.8405L15.5048 14.5215C15.289 14.9449 14.9448 15.2891 14.5215 15.5048L13.8405 14.1683ZM3.75 12.6C3.75 13.0324 3.7506 13.3116 3.76792 13.5242C3.78457 13.7279 3.81285 13.8034 3.83175 13.8405L2.49525 14.5215C2.35065 14.2377 2.29717 13.9428 2.27295 13.6463C2.2494 13.3586 2.25 13.0076 2.25 12.6H3.75ZM5.4 15.75C4.9923 15.75 4.64145 15.7506 4.35375 15.7271C4.0572 15.7028 3.7623 15.6494 3.4785 15.5048L4.1595 14.1683C4.19662 14.1872 4.27215 14.2154 4.47585 14.2321C4.6884 14.2494 4.96755 14.25 5.4 14.25V15.75ZM3.83175 13.8405C3.90367 13.9816 4.01835 14.0963 4.1595 14.1683L3.4785 15.5048C3.05512 15.2891 2.71095 14.9449 2.49525 14.5215L3.83175 13.8405ZM2.25 5.4C2.25 4.99234 2.2494 4.64148 2.27295 4.35373C2.29717 4.05722 2.35065 3.76231 2.49525 3.47852L3.83175 4.15951C3.81285 4.19659 3.78457 4.27213 3.76792 4.47588C3.7506 4.68838 3.75 4.96759 3.75 5.4H2.25ZM5.4 3.75C4.96755 3.75 4.6884 3.75059 4.47585 3.76795C4.27215 3.78459 4.19662 3.81285 4.1595 3.83174L3.4785 2.49524C3.7623 2.35064 4.0572 2.29715 4.35375 2.27293C4.64145 2.24942 4.9923 2.25 5.4 2.25V3.75ZM2.49525 3.47852C2.71095 3.05516 3.05512 2.71095 3.4785 2.49524L4.1595 3.83174C4.01835 3.90365 3.90367 4.01839 3.83175 4.15951L2.49525 3.47852ZM14.25 5.4C14.25 4.96759 14.2494 4.68838 14.2321 4.47588C14.2154 4.27213 14.1871 4.19659 14.1683 4.15951L15.5048 3.47852C15.6494 3.76231 15.7028 4.05722 15.7271 4.35373C15.7506 4.64148 15.75 4.99234 15.75 5.4H14.25ZM12.6 2.25C13.0077 2.25 13.3585 2.24942 13.6463 2.27293C13.9428 2.29715 14.2377 2.35064 14.5215 2.49524L13.8405 3.83174C13.8034 3.81285 13.7279 3.78459 13.5241 3.76795C13.3116 3.75059 13.0324 3.75 12.6 3.75V2.25ZM14.1683 4.15951C14.0963 4.01839 13.9816 3.90365 13.8405 3.83174L14.5215 2.49524C14.9448 2.71095 15.289 3.05516 15.5048 3.47852L14.1683 4.15951ZM5.25 12V6H6.75V12H5.25Z" fill="black"/>
</svg>
