<svg width="18" height="18" viewBox="0 0 18 18" fill="none" xmlns="http://www.w3.org/2000/svg">
<path d="M15 5.4H14.25V12.6H15H15.75V5.4H15ZM15 5.4H15.75C15.75 4.99234 15.7506 4.64148 15.7271 4.35373C15.7028 4.05722 15.6494 3.76231 15.5048 3.47852L14.8365 3.81902L14.1683 4.15951C14.1872 4.19659 14.2154 4.27213 14.2321 4.47588C14.2494 4.68838 14.25 4.96759 14.25 5.4H15ZM14.8365 3.81902L15.5048 3.47852C15.2891 3.05516 14.9449 2.71095 14.5215 2.49524L14.181 3.16349L13.8405 3.83174C13.9817 3.90365 14.0963 4.01839 14.1683 4.15951L14.8365 3.81902ZM12.6 3V3.75C13.0325 3.75 13.3116 3.75059 13.5242 3.76795C13.7279 3.78459 13.8034 3.81285 13.8405 3.83174L14.181 3.16349L14.5215 2.49524C14.2377 2.35064 13.9428 2.29715 13.6463 2.27293C13.3586 2.24942 13.0077 2.25 12.6 2.25V3ZM5.4 3V3.75H12.6V3V2.25H5.4V3ZM5.4 3V2.25C4.99234 2.25 4.64148 2.24942 4.35373 2.27293C4.05722 2.29715 3.76231 2.35064 3.47852 2.49524L3.81902 3.16349L4.15951 3.83174C4.19659 3.81285 4.27213 3.78459 4.47588 3.76795C4.68838 3.75059 4.96759 3.75 5.4 3.75V3ZM3.16349 3.81902L3.83174 4.15951C3.90365 4.01839 4.01839 3.90365 4.15951 3.83174L3.81902 3.16349L3.47852 2.49524C3.05516 2.71095 2.71095 3.05516 2.49524 3.47852L3.16349 3.81902ZM3 5.4H3.75C3.75 4.96759 3.75059 4.68838 3.76795 4.47588C3.78459 4.27213 3.81285 4.19659 3.83174 4.15951L3.16349 3.81902L2.49524 3.47852C2.35064 3.76231 2.29715 4.05722 2.27293 4.35373C2.24942 4.64148 2.25 4.99234 2.25 5.4H3ZM3 12.6H3.75V5.4H3H2.25V12.6H3ZM3 12.6H2.25C2.25 13.0077 2.24942 13.3586 2.27293 13.6463C2.29715 13.9428 2.35064 14.2377 2.49524 14.5215L3.16349 14.181L3.83174 13.8405C3.81285 13.8034 3.78459 13.7279 3.76795 13.5242C3.75059 13.3116 3.75 13.0325 3.75 12.6H3ZM3.81902 14.8365L4.15951 14.1683C4.01839 14.0963 3.90365 13.9817 3.83174 13.8405L3.16349 14.181L2.49524 14.5215C2.71095 14.9449 3.05516 15.2891 3.47852 15.5048L3.81902 14.8365ZM5.4 15V14.25C4.96759 14.25 4.68838 14.2494 4.47588 14.2321C4.27213 14.2154 4.19659 14.1872 4.15951 14.1683L3.81902 14.8365L3.47852 15.5048C3.76231 15.6494 4.05722 15.7028 4.35373 15.7271C4.64148 15.7506 4.99234 15.75 5.4 15.75V15ZM12.6 15V14.25H5.4V15V15.75H12.6V15ZM12.6 15V15.75C13.0077 15.75 13.3586 15.7506 13.6463 15.7271C13.9428 15.7028 14.2377 15.6494 14.5215 15.5048L14.181 14.8365L13.8405 14.1683C13.8034 14.1872 13.7279 14.2154 13.5242 14.2321C13.3116 14.2494 13.0325 14.25 12.6 14.25V15ZM14.8365 14.181L14.1683 13.8405C14.0963 13.9817 13.9817 14.0963 13.8405 14.1683L14.181 14.8365L14.5215 15.5048C14.9449 15.2891 15.2891 14.9449 15.5048 14.5215L14.8365 14.181ZM15 12.6H14.25C14.25 13.0325 14.2494 13.3116 14.2321 13.5242C14.2154 13.7279 14.1872 13.8034 14.1683 13.8405L14.8365 14.181L15.5048 14.5215C15.6494 14.2377 15.7028 13.9428 15.7271 13.6463C15.7506 13.3586 15.75 13.0077 15.75 12.6H15Z" fill="black"/>
<path d="M7.5 3V7.5V15" stroke="black" stroke-width="1.5" stroke-linecap="square"/>
<path d="M3 7.5H7.5H15" stroke="black" stroke-width="1.5" stroke-linecap="square"/>
</svg>
