<svg width="18" height="18" viewBox="0 0 18 18" fill="none" xmlns="http://www.w3.org/2000/svg">
<path d="M5.25 10.5C4.42157 10.5 3.75 9.82845 3.75 9C3.75 8.17155 4.42157 7.5 5.25 7.5L12.75 7.5C13.5785 7.5 14.25 8.17155 14.25 9C14.25 9.82845 13.5785 10.5 12.75 10.5L5.25 10.5Z" stroke="black" stroke-width="1.5" stroke-linejoin="round"/>
<path d="M10.5 15.75C9.67157 15.75 9 15.0784 9 14.25C9 13.4216 9.67157 12.75 10.5 12.75L15 12.75C15.8285 12.75 16.5 13.4216 16.5 14.25C16.5 15.0784 15.8285 15.75 15 15.75L10.5 15.75Z" stroke="black" stroke-width="1.5" stroke-linejoin="round"/>
<path d="M3 5.21484C2.17157 5.21484 1.5 4.54327 1.5 3.71484C1.5 2.88642 2.17157 2.21484 3 2.21484L7.5 2.21484C8.32845 2.21484 9 2.88642 9 3.71484C9 4.54327 8.32845 5.21484 7.5 5.21484L3 5.21484Z" stroke="black" stroke-width="1.5" stroke-linejoin="round"/>
</svg>
